<svg xmlns="http://www.w3.org/2000/svg" width="197.432" height="197.432" viewBox="0 0 2047 2047" shape-rendering="geometricPrecision" text-rendering="geometricPrecision" image-rendering="optimizeQuality" fill-rule="evenodd" clip-rule="evenodd"><defs><style>.fil0{fill:none}.fil1{fill:#9d9e9e}</style></defs><g id="Слой_x0020_1"><path class="fil0" d="M0 0h2047v2047H0z"/><path class="fil1" d="M900 1169l-23-85-85-317H626v-85h231l22 83 86 319h283l62-232H991l-23-85h453l-108 402H900zm306 53c40 0 72 32 72 71 0 40-32 72-72 72-39 0-71-32-71-72 0-39 32-71 71-71zm-347 0c40 0 71 32 71 71 0 40-31 72-71 72-39 0-71-32-71-72 0-39 32-71 71-71z"/></g></svg>