<svg xmlns="http://www.w3.org/2000/svg" width="59" height="59" viewBox="0 0 11654 11654" shape-rendering="geometricPrecision" text-rendering="geometricPrecision" image-rendering="optimizeQuality" fill-rule="evenodd" clip-rule="evenodd"><defs><style>.fil0{fill:none}.fil1{fill:#9d9e9e}</style></defs><g id="Слой_x0020_1"><path class="fil0" d="M0 0h11654v11654H0z"/><path class="fil1" d="M7235 6423l1021 900c154 154 154 404 0 559-155 154-405 154-559 0l-900-1021c-668 461-1590 395-2184-199-669-669-669-1754 0-2423s1753-669 2422 0c595 594 661 1516 200 2184zm-545-106c479-479 479-1254 0-1733-478-478-1254-478-1732 0-478 479-478 1254 0 1732 478 479 1254 479 1732 1z"/></g></svg>