<svg xmlns="http://www.w3.org/2000/svg" width="794.801" height="73.355" viewBox="0 0 23287 2149" shape-rendering="geometricPrecision" text-rendering="geometricPrecision" image-rendering="optimizeQuality" fill-rule="evenodd" clip-rule="evenodd"><defs><style>.fil0{fill:#2b2a29;fill-rule:nonzero}</style></defs><path class="fil0" d="M0 2014c111 74 330 135 530 135 491 0 725-280 725-601 0-305-176-475-527-611-287-111-413-206-413-400 0-142 107-312 391-312 188 0 327 59 392 99l74-219C1082 52 925 3 715 3 311 3 43 244 43 567c0 290 210 469 549 592 281 105 392 219 392 411 0 209-161 354-435 354-185 0-358-58-478-136L0 2014zM2698 919h-805V262h854V37H1622v2078h1172v-225h-901v-749h805V919zm441 1196h1160v-225h-889V37h-271v2078zm1394 0h1159v-225h-888V37h-271v2078zm1995 0v-885L7222 37h-302l-300 574c-80 157-154 293-209 428h-6c-65-145-130-271-207-428L5905 37h-308l660 1196v882h271zM8190 0c-555 0-962 432-962 1092 0 629 382 1057 934 1057 531 0 965-382 965-1094C9127 435 8761 0 8190 0zm-9 219c447 0 663 432 663 848 0 472-241 863-666 863-426 0-666-397-666-845 0-453 222-866 669-866zM9473 37v1224c0 648 321 888 746 888 450 0 786-259 786-897V37h-271v1233c0 457-200 660-506 660-277 0-484-197-484-660V37h-271zm1998 2078h268v-900h253c244 9 358 117 419 404 56 259 102 435 136 496h278c-43-80-93-280-161-570-49-216-145-364-302-419v-10c216-74 389-256 389-527 0-163-62-305-164-398-126-114-314-169-601-169-182 0-379 18-515 43v2050zm268-1862c47-12 136-22 265-22 284 0 478 117 478 386 0 237-182 394-468 394h-275V253zm3275 1862h456L15359 37h-616l-219 691c-71 231-142 505-198 746h-12c-46-244-108-503-176-743l-203-694h-626l-133 2078h435l40-789c12-259 25-580 34-860h6c53 271 120 567 188 814l222 801h367l253-811c80-243 167-539 234-804h7c0 302 9 604 18 854l34 795zM16778 0c-611 0-1012 466-1012 1089 0 595 364 1060 978 1060 611 0 1021-410 1021-1094 0-577-349-1055-987-1055zm-9 373c323 0 499 321 499 697 0 404-182 706-499 706-315 0-506-287-506-697 0-404 185-706 506-706zm1335 1733c114 16 290 31 533 31 407 0 743-86 962-268 198-170 343-444 343-842 0-367-136-623-352-783-197-148-456-222-854-222-234 0-459 18-632 46v2038zm469-1705c40-9 111-19 212-19 407 0 660 229 660 660 0 497-280 731-709 728-56 0-123 0-163-9V401zm2944 453h-764V422h811V37h-1280v2078h1323v-385h-854v-493h764V854zm475 1261h1295v-394h-826V37h-469v2078z" id="Слой_x0020_1"/></svg>